<svg width="70" height="70" viewBox="0 0 70 70" fill="none" xmlns="http://www.w3.org/2000/svg">
<rect x="7" y="16" width="53" height="41" rx="8" fill="white"/>
<path d="M14.5834 14.5833H52.5C54.8207 14.5833 57.0463 15.5052 58.6872 17.1461C60.3282 18.7871 61.25 21.0127 61.25 23.3333V49.5833C61.25 51.904 60.3282 54.1296 58.6872 55.7705C57.0463 57.4114 54.8207 58.3333 52.5 58.3333H14.5834C12.2627 58.3333 10.0371 57.4114 8.39619 55.7705C6.75525 54.1296 5.83337 51.904 5.83337 49.5833V23.3333C5.83337 21.0127 6.75525 18.7871 8.39619 17.1461C10.0371 15.5052 12.2627 14.5833 14.5834 14.5833ZM14.5834 17.5C13.125 17.5 11.8417 17.9958 10.85 18.8708L33.5417 33.5416L56.2334 18.8708C55.2417 17.9958 53.9584 17.5 52.5 17.5H14.5834ZM33.5417 37.0708L9.12921 21.2333C8.89587 21.875 8.75004 22.6041 8.75004 23.3333V49.5833C8.75004 51.1304 9.36462 52.6141 10.4586 53.7081C11.5525 54.8021 13.0363 55.4166 14.5834 55.4166H52.5C54.0471 55.4166 55.5309 54.8021 56.6248 53.7081C57.7188 52.6141 58.3334 51.1304 58.3334 49.5833V23.3333C58.3334 22.6041 58.1875 21.875 57.9542 21.2333L33.5417 37.0708Z" fill="black"/>
</svg>
