<svg width="70" height="70" viewBox="0 0 70 70" fill="none" xmlns="http://www.w3.org/2000/svg">
<path d="M56.3889 10.6945H13.6111C12.0003 10.6945 10.6945 12.0003 10.6945 13.6111V56.3889C10.6945 57.9997 12.0003 59.3056 13.6111 59.3056H56.3889C57.9997 59.3056 59.3056 57.9997 59.3056 56.3889V13.6111C59.3056 12.0003 57.9997 10.6945 56.3889 10.6945Z" fill="#61B2E4"/>
<path d="M19.4445 29.1667H25.2778V49.5834H19.4445V29.1667Z" fill="white"/>
<path d="M22.3612 24.7916C24.2405 24.7916 25.7639 23.2682 25.7639 21.3889C25.7639 19.5096 24.2405 17.9861 22.3612 17.9861C20.4818 17.9861 18.9584 19.5096 18.9584 21.3889C18.9584 23.2682 20.4818 24.7916 22.3612 24.7916Z" fill="white"/>
<path d="M41.3194 34.0278C39.1718 34.0278 37.4305 35.1633 37.4305 38.4028V49.5833H31.5972V29.1667H37.4305V31.3153H37.4286C38.1578 30.4862 39.0555 29.8223 40.0618 29.368C41.0681 28.9136 42.1597 28.6793 43.2638 28.6805C47.5591 28.6805 51.0416 31.8889 51.0416 37.4305V49.5833H45.2083V38.4028C45.2083 35.1633 43.468 34.0278 41.3194 34.0278Z" fill="white"/>
<path d="M56.3889 10.6945H13.6111C12.0003 10.6945 10.6945 12.0003 10.6945 13.6111V56.3889C10.6945 57.9997 12.0003 59.3056 13.6111 59.3056H56.3889C57.9997 59.3056 59.3056 57.9997 59.3056 56.3889V13.6111C59.3056 12.0003 57.9997 10.6945 56.3889 10.6945Z" stroke="black" stroke-width="1.77778" stroke-miterlimit="10"/>
<path d="M19.4445 29.1667H25.2778V49.5834H19.4445V29.1667Z" stroke="black" stroke-width="1.77778" stroke-linecap="round" stroke-linejoin="round"/>
<path d="M22.3612 24.7917C24.2405 24.7917 25.7639 23.2682 25.7639 21.3889C25.7639 19.5096 24.2405 17.9861 22.3612 17.9861C20.4818 17.9861 18.9584 19.5096 18.9584 21.3889C18.9584 23.2682 20.4818 24.7917 22.3612 24.7917Z" stroke="black" stroke-width="1.77778" stroke-linecap="round" stroke-linejoin="round"/>
<path d="M41.3195 34.0278C39.1719 34.0278 37.4306 35.1633 37.4306 38.4028V49.5833H31.5973V29.1667H37.4306V31.3153H37.4287C38.1579 30.4862 39.0556 29.8223 40.0619 29.368C41.0682 28.9136 42.1599 28.6793 43.264 28.6805C47.5592 28.6805 51.0417 31.8889 51.0417 37.4305V49.5833H45.2084V38.4028C45.2084 35.1633 43.4681 34.0278 41.3195 34.0278Z" stroke="black" stroke-width="1.77778" stroke-linecap="round" stroke-linejoin="round"/>
</svg>
